<svg width="1600" height="1000" viewBox="0 0 1600 1000" fill="none" xmlns="http://www.w3.org/2000/svg">
  <rect width="1600" height="1000" fill="#F5F8FC"/>
  <text x="70" y="95" font-size="56" font-family="Inter, Arial" font-weight="700" fill="#162542">Budgety — Design Method</text>
  <text x="70" y="145" font-size="28" font-family="Inter, Arial" fill="#475569">Components and interactions for categories and alerts</text>

  <rect x="80" y="220" width="900" height="680" rx="24" fill="white" stroke="#E2E8F0" stroke-width="3"/>
  <text x="120" y="275" font-size="34" font-family="Inter, Arial" font-weight="700" fill="#162542">Category Cards</text>

  <rect x="120" y="330" width="820" height="150" rx="18" fill="#F8FAFC" stroke="#E2E8F0" stroke-width="2"/>
  <text x="150" y="380" font-size="30" font-family="Inter, Arial" font-weight="700" fill="#162542">Housing</text><text x="760" y="380" font-size="30" font-family="Inter, Arial" font-weight="700" fill="#162542">$1,200</text>
  <rect x="150" y="420" width="710" height="20" fill="#E2E8F0"/><rect x="150" y="420" width="554" height="20" fill="#10B981"/><text x="875" y="438" font-size="22" font-family="Inter, Arial" fill="#475569">78%</text>

  <rect x="120" y="510" width="820" height="150" rx="18" fill="#F8FAFC" stroke="#E2E8F0" stroke-width="2"/>
  <text x="150" y="560" font-size="30" font-family="Inter, Arial" font-weight="700" fill="#162542">Food</text><text x="760" y="560" font-size="30" font-family="Inter, Arial" font-weight="700" fill="#162542">$420</text>
  <rect x="150" y="600" width="710" height="20" fill="#E2E8F0"/><rect x="150" y="600" width="646" height="20" fill="#3B82F6"/><text x="875" y="618" font-size="22" font-family="Inter, Arial" fill="#475569">91%</text>

  <rect x="120" y="690" width="820" height="150" rx="18" fill="#F8FAFC" stroke="#E2E8F0" stroke-width="2"/>
  <text x="150" y="740" font-size="30" font-family="Inter, Arial" font-weight="700" fill="#162542">Transport</text><text x="760" y="740" font-size="30" font-family="Inter, Arial" font-weight="700" fill="#162542">$180</text>
  <rect x="150" y="780" width="710" height="20" fill="#E2E8F0"/><rect x="150" y="780" width="710" height="20" fill="#EF4444"/><text x="875" y="798" font-size="22" font-family="Inter, Arial" fill="#475569">112%</text>

  <rect x="1030" y="220" width="490" height="680" rx="24" fill="white" stroke="#E2E8F0" stroke-width="3"/>
  <text x="1065" y="275" font-size="34" font-family="Inter, Arial" font-weight="700" fill="#162542">Interaction States</text>
  <circle cx="1090" cy="360" r="22" fill="#10B981"/><text x="1130" y="365" font-size="30" font-family="Inter, Arial" font-weight="700" fill="#162542">Normal</text><text x="1130" y="400" font-size="24" font-family="Inter, Arial" fill="#475569">Budget on track</text>
  <circle cx="1090" cy="530" r="22" fill="#F59E0B"/><text x="1130" y="535" font-size="30" font-family="Inter, Arial" font-weight="700" fill="#162542">Warning</text><text x="1130" y="570" font-size="24" font-family="Inter, Arial" fill="#475569">Approaching limit</text>
  <circle cx="1090" cy="700" r="22" fill="#EF4444"/><text x="1130" y="705" font-size="30" font-family="Inter, Arial" font-weight="700" fill="#162542">Over</text><text x="1130" y="740" font-size="24" font-family="Inter, Arial" fill="#475569">Limit exceeded</text>
</svg>
