<?xml version="1.0" standalone="no"?>
<!DOCTYPE svg PUBLIC "-//W3C//DTD SVG 20010904//EN"
 "http://www.w3.org/TR/2001/REC-SVG-20010904/DTD/svg10.dtd">
<svg version="1.0" xmlns="http://www.w3.org/2000/svg"
 width="700.000000pt" height="700.000000pt" viewBox="0 0 700.000000 700.000000"
 preserveAspectRatio="xMidYMid meet">
<metadata>
Created by potrace 1.14, written by Peter Selinger 2001-2017
</metadata>
<g transform="translate(0.000000,700.000000) scale(0.100000,-0.100000)"
fill="#000000" stroke="none">
<path d="M3220 6994 c-182 -20 -243 -29 -360 -50 -786 -142 -1524 -572 -2041
-1189 -436 -522 -692 -1103 -796 -1810 -25 -173 -25 -717 0 -890 70 -477 202
-877 416 -1258 281 -503 667 -917 1146 -1229 449 -293 903 -461 1470 -545 152
-22 705 -26 855 -5 823 113 1504 445 2065 1007 493 492 830 1119 959 1783 55
283 61 346 61 692 0 346 -6 409 -61 692 -148 762 -575 1482 -1179 1989 -517
433 -1119 699 -1800 795 -114 15 -640 29 -735 18z m535 -534 c380 -35 715
-130 1060 -300 590 -290 1055 -755 1345 -1344 209 -425 310 -853 310 -1316 0
-784 -316 -1546 -870 -2100 -368 -368 -858 -648 -1355 -775 -624 -159 -1293
-114 -1873 127 -888 369 -1537 1129 -1762 2063 -89 369 -103 798 -39 1180 102
607 392 1168 829 1605 490 490 1132 792 1826 859 128 12 401 13 529 1z"/>
<path d="M1779 5221 l-29 -29 0 -1282 0 -1282 29 -29 29 -29 261 0 c166 0 269
4 284 11 13 6 31 23 40 39 16 26 17 111 17 999 l0 971 180 0 c98 0 203 -5 232
-11 170 -36 305 -175 338 -348 6 -32 10 -244 10 -517 0 -311 3 -464 10 -464
20 0 135 63 208 113 39 27 111 91 160 141 136 144 222 308 261 503 116 567
-256 1120 -827 1229 -58 11 -193 14 -624 14 l-550 0 -29 -29z"/>
<path d="M4645 4419 c-52 -25 -50 8 -55 -909 l-5 -855 -23 -51 c-29 -64 -102
-136 -167 -166 -76 -34 -191 -33 -266 5 -66 32 -132 99 -162 165 -21 45 -22
62 -25 439 l-3 392 -45 -19 c-74 -32 -178 -105 -246 -172 -371 -366 -344 -969
60 -1304 75 -62 233 -143 332 -171 51 -14 101 -18 235 -17 156 0 177 2 259 27
105 33 228 93 311 152 67 48 186 168 233 236 49 73 109 198 139 295 l28 89 3
908 3 908 -30 29 -29 30 -264 -1 c-153 0 -272 -5 -283 -10z"/>
</g>
</svg>
