<svg xmlns="http://www.w3.org/2000/svg" viewBox="0 0 32 32">
<path d="M19.29442,6.58887h-9.2196V0.62415C10.07481,0.27942,9.79539,0,9.45067,0C9.28514,0,9.12645,0.06573,9.00938,0.1828
	l-8.6438,8.64374c-0.48743,0.48749-0.48743,1.27783,0,1.76532l8.6438,8.6438c0.24377,0.24365,0.63892,0.24359,0.88263-0.00018
	c0.117-0.117,0.18274-0.2757,0.18274-0.44116l0.00006-5.96478l9.2196-0.00354c3.57245,0,6.46844,2.896,6.46844,6.46844
	s-2.896,6.46844-6.46844,6.46844h-8.7254c-0.27612,0-0.5,0.22388-0.5,0.5V31.5c0,0.27612,0.22388,0.5,0.5,0.5h8.7254
	c7.01709,0,12.70557-5.68848,12.70557-12.70557S26.31151,6.58887,19.29442,6.58887z"/>
</svg>
