<?xml version="1.0" encoding="utf-8"?>
<!-- Generator: Adobe Illustrator 25.4.1, SVG Export Plug-In . SVG Version: 6.00 Build 0)  -->
<svg version="1.1" id="Layer_1" xmlns="http://www.w3.org/2000/svg" xmlns:xlink="http://www.w3.org/1999/xlink" x="0px" y="0px"
	 viewBox="0 0 32 32" enable-background="new 0 0 32 32" xml:space="preserve">
<path d="M28,32H4c-2.20914,0-4-1.79086-4-4V4c0-2.20914,1.79086-4,4-4h24c2.20914,0,4,1.79086,4,4v24C32,30.20914,30.20914,32,28,32
	z"/>
<g>
	<path fill="#ADCCFF" d="M11.35,4L11.35,4L11.35,4h-6.6C4.3,4,4,4.29998,4,4.74996v14.92416v1.94989
		c0,0.44997,0.3,0.74996,0.75,0.74996h0.825H7.75c0.45,0,0.75-0.29998,0.75-0.74996v-1.94989V8.49975h2.25
		c1.65,0,3,1.34992,3,2.99983v6.22465c2.625-1.04994,4.5-3.5998,4.5-6.59963C18.25,7.29982,15.175,4.14999,11.35,4z"/>
	<path fill="#ADCCFF" d="M24.25,9.62469c-0.45,0-0.75,0.29998-0.75,0.74996v10.87439l0,0c0,1.27493-0.975,2.24987-2.25,2.24987l0,0
		c-1.275,0-2.25-0.97495-2.25-2.24987V16.4493c-2.475,1.04994-4.2,3.6748-3.675,6.59963c0.45,2.77485,2.925,4.87473,5.775,4.94972
		c3.825,0.07499,6.9-2.99983,6.9-6.74962V10.37464c0-0.44998-0.3-0.74996-0.75-0.74996H24.25z"/>
</g>
</svg>
