<svg xmlns="http://www.w3.org/2000/svg" viewBox="0 0 32 32"><defs><style>.a{fill:#002341;}.b{fill:#fff;}</style></defs><path class="a" d="M16,32h0A16,16,0,0,1,0,16v0A16,16,0,0,1,16,0h0A16,16,0,0,1,32,16v0A16,16,0,0,1,16,32Z"/><path class="b" d="M16,2.4h0A13.6,13.6,0,0,0,2.4,16v0A13.6,13.6,0,0,0,16,29.6h0A13.6,13.6,0,0,0,29.6,16v0A13.6,13.6,0,0,0,16,2.4Zm-3.5,8.59983H11v8.74951a.47238.47238,0,0,1-.5.5h-2a.47238.47238,0,0,1-.5-.5V8.5A.47237.47237,0,0,1,8.5,8h4.4a4.7415,4.7415,0,0,1,1.6,9.14949V12.99972A2.00583,2.00583,0,0,0,12.5,10.99983ZM24,19.49936a4.50381,4.50381,0,0,1-4.6,4.49974A3.99291,3.99291,0,0,1,18,16.29953v3.19983a1.5,1.5,0,0,0,3,0V12.24977a.47238.47238,0,0,1,.5-.5h2a.47238.47238,0,0,1,.5.5Z"/></svg>