<?xml version="1.0" encoding="utf-8"?>
<!-- Generator: Adobe Illustrator 25.4.1, SVG Export Plug-In . SVG Version: 6.00 Build 0)  -->
<svg version="1.1" id="Layer_1" xmlns="http://www.w3.org/2000/svg" xmlns:xlink="http://www.w3.org/1999/xlink" x="0px" y="0px"
	 viewBox="0 0 32 32" style="enable-background:new 0 0 32 32;" xml:space="preserve">
<style type="text/css">
	.st0{fill:#ADCCFF;}
</style>
<path d="M28,32H4c-2.2,0-4-1.8-4-4V4c0-2.2,1.8-4,4-4h24c2.2,0,4,1.8,4,4v24C32,30.2,30.2,32,28,32z"/>
<g>
	<path class="st0" d="M11.4,4L11.4,4L11.4,4H4.8C4.3,4,4,4.3,4,4.7v14.9v1.9c0,0.4,0.3,0.7,0.8,0.7h0.8h2.2c0.4,0,0.8-0.3,0.8-0.7
		v-1.9V8.5h2.2c1.6,0,3,1.3,3,3v6.2c2.6-1,4.5-3.6,4.5-6.6C18.2,7.3,15.2,4.1,11.4,4z"/>
	<path class="st0" d="M24.2,9.6c-0.5,0-0.8,0.3-0.8,0.7v10.9l0,0c0,1.3-1,2.2-2.2,2.2l0,0c-1.3,0-2.2-1-2.2-2.2v-4.8
		c-2.5,1-4.2,3.7-3.7,6.6c0.4,2.8,2.9,4.9,5.8,4.9c3.8,0.1,6.9-3,6.9-6.7V10.4c0-0.4-0.3-0.7-0.8-0.7H24.2z"/>
</g>
</svg>
