<svg xmlns="http://www.w3.org/2000/svg" viewBox="0 0 32 32"><path d="M28.4497,8H23V7.55029A3.55032,3.55032,0,0,0,19.4497,4H12.55035A3.55033,3.55033,0,0,0,9,7.55029V8H3.55029A3.55032,3.55032,0,0,0,0,11.55029V15.5H7v-.96A.54.54,0,0,1,7.54,14h.92a.54.54,0,0,1,.54.54v.96H23v-.96a.54.54,0,0,1,.54-.54h.92a.54.54,0,0,1,.54.54v.96h7V11.55029A3.55032,3.55032,0,0,0,28.4497,8ZM11,7.55029A1.55207,1.55207,0,0,1,12.55035,6H19.4497A1.552,1.552,0,0,1,21,7.55029V8H11Z"/><path d="M25,17.46a.54.54,0,0,1-.54.54h-.92a.54.54,0,0,1-.54-.54V16.5H9v.96a.54.54,0,0,1-.54.54H7.54A.54.54,0,0,1,7,17.46V16.5H0V28.44965A3.55033,3.55033,0,0,0,3.55029,32H28.4497A3.55033,3.55033,0,0,0,32,28.44965V16.5H25Z"/></svg>