<svg xmlns="http://www.w3.org/2000/svg" viewBox="0 0 32 32"><path d="M.8536,11.14642,4.23244,7.76758l5.05023,5.05023,3.53522-3.53516L7.7676,4.23242,11.14644.85352A.5.5,0,0,0,10.79293,0H1A1,1,0,0,0,0,1v9.79291a.5.5,0,0,0,.85358.35351Z"/><path d="M7.7676,27.76758l5.05029-5.05023L9.28267,19.18219,4.23244,24.23242.8536,20.85358A.5.5,0,0,0,0,21.20709V31a1,1,0,0,0,1,1h9.79291a.5.5,0,0,0,.35351-.85352Z"/><path d="M31,0H21.20711a.5.5,0,0,0-.35351.85352l3.37884,3.3789L19.18221,9.28265l3.53516,3.53516L27.7676,7.76758l3.37884,3.37884A.5.5,0,0,0,32,10.79291V1A1,1,0,0,0,31,0Z"/><path d="M31.14644,20.85358,27.7676,24.23242l-5.05023-5.05029-3.53516,3.53516,5.05023,5.05029-3.37884,3.3789A.5.5,0,0,0,21.20711,32H31a1,1,0,0,0,1-1V21.20709a.5.5,0,0,0-.85358-.35351Z"/></svg>