<svg xmlns="http://www.w3.org/2000/svg" viewBox="0 0 32 32">
<path d="M26.2,14l-3,3v11.1H3.9V8.9H15l3-3c0.2-0.2,0.2-0.5,0-0.7C17.9,5.1,17.8,5,17.7,5H1C0.4,5,0,5.4,0,6c0,0,0,0,0,0V31
	c0,0.5,0.4,1,1,1c0,0,0,0,0,0H26c0.5,0,1-0.4,1-1c0,0,0,0,0,0V14.3c0-0.3-0.2-0.5-0.5-0.5C26.4,13.9,26.3,13.9,26.2,14z"/>
<path d="M31,0h-9.8c-0.3,0-0.5,0.2-0.5,0.5c0,0.1,0.1,0.3,0.1,0.4l3.4,3.4L10,18.5c-0.4,0.4-0.4,1,0,1.4l2.1,2.1
	c0.4,0.4,1,0.4,1.4,0L27.8,7.8l3.4,3.4c0.2,0.2,0.5,0.2,0.7,0c0.1-0.1,0.1-0.2,0.1-0.4V1C32,0.4,31.6,0,31,0z"/>
<g>
	<path d="M39,11.1l3.4-3.4l5.1,5.1l3.5-3.5l-5.1-5.1l3.4-3.4c0.1-0.1,0.1-0.2,0.1-0.4c0-0.3-0.2-0.5-0.5-0.5h-9.8c-0.6,0-1,0.4-1,1
		v9.8c0,0.1,0.1,0.3,0.1,0.4C38.4,11.3,38.8,11.3,39,11.1z"/>
	<path d="M45.9,27.8l5.1-5.1l-3.5-3.5l-5.1,5.1L39,20.9c-0.2-0.2-0.5-0.2-0.7,0c-0.1,0.1-0.1,0.2-0.1,0.4V31c0,0.6,0.4,1,1,1h9.8
		c0.3,0,0.5-0.2,0.5-0.5c0-0.1-0.1-0.3-0.1-0.4L45.9,27.8z"/>
	<path d="M69.1,0h-9.8c-0.3,0-0.5,0.2-0.5,0.5c0,0.1,0.1,0.3,0.1,0.4l3.4,3.4l-5.1,5.1l3.5,3.5l5.1-5.1l3.4,3.4
		c0.2,0.2,0.5,0.2,0.7,0c0.1-0.1,0.1-0.2,0.1-0.4V1C70.1,0.4,69.7,0,69.1,0z"/>
	<path d="M69.3,20.9l-3.4,3.4l-5.1-5.1l-3.5,3.5l5.1,5.1L59,31.1c-0.1,0.1-0.1,0.2-0.1,0.4c0,0.3,0.2,0.5,0.5,0.5h9.8
		c0.6,0,1-0.4,1-1v-9.8c0-0.1-0.1-0.3-0.1-0.4C69.8,20.7,69.4,20.7,69.3,20.9z"/>
</g>
</svg>
