<svg xmlns="http://www.w3.org/2000/svg" viewBox="0 0 32 32"><path d="M15.9838,31.99918,16,32l.03088-.00159Z"/><path d="M16,0A15.99509,15.99509,0,0,0,8.60135,30.17868q-.01914-6.47937-.048-12.95868l-.00678.00012c.10754-.72308.20642-1.44671.26849-2.1737a15.05342,15.05342,0,0,0-.27838-4.68463.24625.24625,0,0,0-.48279.097,14.47872,14.47872,0,0,1,.12171,4.51837c-.08893.752-.21668,1.4964-.353,2.23883-.15356-.00817-.30694-.01593-.47211-.03906-.3988-.06866-.79077-.10382-1.16369-.20721-.76245-.21125-1.51361-.463-2.272-.68958a.27565.27565,0,0,1-.22015-.34961c.09949-.8432.17371-1.68957.289-2.53039A26.9372,26.9372,0,0,1,4.82516,9.261c.10608-.35157.24384-.69361.36878-1.03937A2.7245,2.7245,0,0,1,6.47049,6.77805a17.41377,17.41377,0,0,1,3.28009-1.3819c.38116-.12683.76581-.24347,1.15088-.35816.21167-.063.27368-.05432.36865.07709a4.6533,4.6533,0,0,0,1.56268,1.43463,5.87418,5.87418,0,0,0,1.48383.545,7.382,7.382,0,0,0,1.32721.17517,8.10842,8.10842,0,0,0,1.9472-.1496,6.20547,6.20547,0,0,0,1.50165-.53192A3.91326,3.91326,0,0,0,20.66629,5.211a.38386.38386,0,0,1,.43219-.173c.38507.11469.76978.23133,1.15094.35816a17.41377,17.41377,0,0,1,3.28009,1.3819,2.7245,2.7245,0,0,1,1.27655,1.44354c.12494.34576.2627.6878.36878,1.03937a26.9372,26.9372,0,0,1,.84155,4.13922c.11529.84082.18951,1.68719.289,2.53039a.27565.27565,0,0,1-.22015.34961c-.75843.22656-1.50959.47833-2.272.68958-.37292.10339-.76489.13855-1.16369.20721-.16517.02313-.31855.03089-.47211.03906-.13635-.74243-.2641-1.48687-.353-2.23883a14.47872,14.47872,0,0,1,.12171-4.51837.24625.24625,0,0,0-.48279-.097,15.05342,15.05342,0,0,0-.27838,4.68463c.06207.727.16095,1.45062.26849,2.1737L23.44662,17.22q-.0293,6.47937-.048,12.95868A15.99507,15.99507,0,0,0,16,0Z"/></svg>