<svg xmlns="http://www.w3.org/2000/svg" viewBox="0 0 32 32"><path d="M30.58413,12.95474c-.1179-.99932-.20582-2.00243-.34247-2.999A31.92541,31.92541,0,0,0,29.24424,5.05c-.12572-.41665-.289-.82207-.43705-1.23189a3.229,3.229,0,0,0-1.51294-1.71082,20.63745,20.63745,0,0,0-3.8875-1.6378C22.955.31921,22.499.181,22.04267.045a.45509.45509,0,0,0-.51227.2051,4.6382,4.6382,0,0,1-1.865,1.63248,7.35552,7.35552,0,0,1-1.77975.63041,9.60762,9.60762,0,0,1-2.30778.17731,8.75114,8.75114,0,0,1-1.573-.20759,6.96387,6.96387,0,0,1-1.75863-.646A5.51612,5.51612,0,0,1,10.39419.13641c-.11253-.15576-.186-.16608-.43692-.09141-.45634.136-.91226.27421-1.364.42453a20.63745,20.63745,0,0,0-3.8875,1.6378A3.229,3.229,0,0,0,3.19281,3.81815c-.14806.40982-.31133.81524-.43705,1.23189a31.92541,31.92541,0,0,0-.99742,4.9057c-.13665.99657-.22457,1.99968-.34247,2.999a.32668.32668,0,0,0,.26089.41439c.89889.26847,1.7891.56686,2.69274.81725.44206.12254.90658.16419,1.37922.24557.19575.02742.37758.03664.55953.04635.16162-.88.313-1.76229.41843-2.65348a17.16138,17.16138,0,0,0-.14422-5.35508.29184.29184,0,0,1,.57216-.115,17.8424,17.8424,0,0,1,.33,5.55217c-.07358.86163-.19081,1.71924-.31823,2.57624l.008-.00012q.03645,8.05634.05971,16.11279a.3483.3483,0,0,0,.23818.329,22.5931,22.5931,0,0,0,5.62159.9926c.28288.01777.5657.01893.84858.03163v.0152c.26346.01246.527.00678.79056.01429.39547.011.79088.02076,1.18622.02149.43674.00049.87348-.00849,1.31023-.02064.2187-.0061.43753-.00085.65624-.01031V31.9551c.34015-.01422.68036-.01636,1.02051-.03773a22.5931,22.5931,0,0,0,5.62159-.9926.3483.3483,0,0,0,.23818-.329q.02309-8.05643.05971-16.11279l.008.00012c-.12742-.857-.24465-1.71461-.31823-2.57624a17.8424,17.8424,0,0,1,.33-5.55217.29184.29184,0,0,1,.57216.115,17.16138,17.16138,0,0,0-.14422,5.35508c.10539.89119.25681,1.77352.41843,2.65348.182-.00971.36378-.01893.55953-.04635.47264-.08138.93716-.123,1.37922-.24557.90364-.25039,1.79385-.54878,2.69274-.81725A.32668.32668,0,0,0,30.58413,12.95474ZM16,15.941a5.0018,5.0018,0,1,1,5.0018-5.0018A5.00181,5.00181,0,0,1,16,15.941Z"/><path d="M18.225,7.52865q0-.17034-.37483-.17035a.95974.95974,0,0,0-.66778.26921,3.78708,3.78708,0,0,0-.65417.91652H16.2351a3.94429,3.94429,0,0,0-.81432.06472,1.05113,1.05113,0,0,0-.49059.24875,2.48719,2.48719,0,0,0-.42594.56557,1.50146,1.50146,0,0,0-.27939.67462q0,.041.02729.04091a.38119.38119,0,0,0,.09879-.02387q.07152-.02382.15331-.04427a2.43014,2.43014,0,0,1,.59971-.05452q.12262,0,.21125.00342.08857.00339.19081.01019a10.55863,10.55863,0,0,1-1.73091,2.10562v.4702q.08178-.07491.16357-.14648t.15332-.13628q.07152-.06474.15673-.14311t.18061-.16016q-.27266.70192-.37825,1.04945a2.11229,2.11229,0,0,0-.10557.59965.96328.96328,0,0,0,.18738.61331.59767.59767,0,0,0,.494.23849q.879,0,2.71893-1.99663V12.067q-.70182.57241-1.12095.84839a1.35724,1.35724,0,0,1-.678.276q-.37476,0-.37476-.4702a2.27533,2.27533,0,0,1,.13286-.736,5.92223,5.92223,0,0,1,.3816-.85522q.24874-.46673.61668-1.05959.19086.01356.32373.02381t.26236.02046q.1294.01026.32024.02387A10.72107,10.72107,0,0,0,18.184,8.65986q-.10221-.01365-.28281-.03407-.18053-.02043-.41226-.04769a5.89051,5.89051,0,0,1,.44291-.60648A1.3621,1.3621,0,0,0,18.225,7.52865Z"/></svg>