<svg width="20" height="20" xmlns="http://www.w3.org/2000/svg" xmlns:xlink="http://www.w3.org/1999/xlink" xml:space="preserve" overflow="hidden"><defs><clipPath id="clip0"><rect x="0" y="0" width="20" height="20"/></clipPath><clipPath id="clip1"><rect x="0" y="0" width="19" height="19"/></clipPath><clipPath id="clip2"><rect x="0" y="0" width="19" height="19"/></clipPath><clipPath id="clip3"><rect x="0" y="0" width="19" height="19"/></clipPath></defs><g clip-path="url(#clip0)"><g clip-path="url(#clip1)"><g clip-path="url(#clip2)"><g clip-path="url(#clip3)"><path d="M8.43363 0.0659062C3.22626 0.639895-0.52984 5.32661 0.0441484 10.534 0.432241 14.0549 2.74971 17.0662 6.0538 18.3429 6.28308 18.4191 6.53071 18.295 6.60689 18.0657 6.62815 18.0018 6.63433 17.9337 6.62496 17.867L6.62496 16.3439C6.34374 16.4069 6.05643 16.4389 5.76822 16.4391 4.74403 16.4191 3.89115 15.6475 3.76912 14.6304 3.67366 14.265 3.47544 13.9346 3.19797 13.6785 2.91237 13.5833 2.8172 13.5833 2.8172 13.4881 2.8172 13.2977 3.10279 13.2977 3.19797 13.2977 3.76912 13.2977 4.24509 13.964 4.43548 14.2496 4.69256 14.7698 5.1927 15.1271 5.76817 15.2015 6.06469 15.2058 6.35809 15.1406 6.62491 15.0112 6.68544 14.331 7.03135 13.7084 7.57684 13.2977 5.38741 12.8217 3.76912 11.5842 3.76912 9.48998 3.80154 8.4332 4.2061 7.4218 4.91144 6.63419 4.76309 6.20628 4.69846 5.75383 4.72105 5.30149 4.69255 4.77823 4.79051 4.2558 5.00665 3.77841 6.01323 3.86376 6.95728 4.30206 7.67205 5.01592 8.25305 4.81349 8.86561 4.71676 9.48072 4.73032 10.1264 4.72478 10.7689 4.82117 11.3846 5.01592 12.0898 4.28858 13.0392 3.8478 14.05 3.77841 14.1959 4.27236 14.2602 4.78682 14.2404 5.30149 14.2732 5.75424 14.2083 6.20875 14.05 6.63419 14.7707 7.41214 15.1777 8.42955 15.1923 9.48998 15.1923 11.5842 13.574 12.8217 11.3846 13.2977 11.9978 13.8597 12.3437 14.6554 12.3365 15.4871L12.3365 17.9621C12.3482 18.2484 12.5897 18.4709 12.8759 18.4592 12.919 18.4575 12.9616 18.4504 13.0028 18.4381 17.9011 16.4722 20.2781 10.9077 18.3122 6.00946 16.7196 2.04154 12.6853-0.385774 8.43363 0.0659066Z" fill="#1263AE" fill-rule="nonzero" fill-opacity="1"/></g></g></g></g></svg>