<svg width="20" height="20" xmlns="http://www.w3.org/2000/svg" xmlns:xlink="http://www.w3.org/1999/xlink" xml:space="preserve" overflow="hidden"><defs><clipPath id="clip0"><rect x="0" y="0" width="20" height="20"/></clipPath><clipPath id="clip1"><rect x="0" y="0" width="19" height="19"/></clipPath><clipPath id="clip2"><rect x="0" y="0" width="19" height="19"/></clipPath><clipPath id="clip3"><rect x="0" y="0" width="19" height="19"/></clipPath></defs><g clip-path="url(#clip0)"><g clip-path="url(#clip1)"><g clip-path="url(#clip2)"><g clip-path="url(#clip3)"><path d="M5.74925 0C2.57402 0-2.79408e-07 2.57402-2.79408e-07 5.74925L0 13.2508C0 16.426 2.57402 19 5.74925 19L13.2477 19C16.4246 19 19 16.4246 19 13.2477L19 5.74925C19 2.57402 16.426-2.79408e-07 13.2508-2.79408e-07ZM15.1901 2.6224C15.8459 2.6224 16.3776 3.15406 16.3776 3.8099 16.3776 4.46574 15.8459 4.9974 15.1901 4.9974 14.5343 4.9974 14.0026 4.46574 14.0026 3.8099 14.0028 3.15416 14.5344 2.62264 15.1901 2.6224ZM9.5 4.15625C12.4513 4.15625 14.8438 6.54873 14.8438 9.5 14.8438 12.4513 12.4513 14.8438 9.5 14.8438 6.54873 14.8438 4.15625 12.4513 4.15625 9.5 4.15921 6.54996 6.54996 4.15921 9.5 4.15625ZM9.5 5.9375C7.53249 5.9375 5.9375 7.53249 5.9375 9.5 5.9375 11.4675 7.53249 13.0625 9.5 13.0625 11.4675 13.0625 13.0625 11.4675 13.0625 9.5 13.0625 7.53249 11.4675 5.9375 9.5 5.9375Z" fill="#1263AE" fill-rule="nonzero" fill-opacity="1"/></g></g></g></g></svg>