<?xml version="1.0" encoding="utf-8"?>
<!-- Generator: Adobe Illustrator 26.3.1, SVG Export Plug-In . SVG Version: 6.00 Build 0)  -->
<svg version="1.1" id="Layer_1" xmlns="http://www.w3.org/2000/svg" xmlns:xlink="http://www.w3.org/1999/xlink" x="0px" y="0px"
	 viewBox="0 0 20 20" style="enable-background:new 0 0 20 20;" xml:space="preserve">
<style type="text/css">
	.st0{clip-path:url(#SVGID_00000091716917237593984890000002496107466814753693_);}
	.st1{clip-path:url(#SVGID_00000149359776709621046840000015376567141660632483_);}
	.st2{clip-path:url(#SVGID_00000104687054907032186380000003323980410609860509_);}
	.st3{fill:#1263AE;}
</style>
<g>
	<g>
		<defs>
			<rect id="SVGID_1_" x="0.5" y="0.5" width="19" height="19"/>
		</defs>
		<clipPath id="SVGID_00000011743369928509742440000017244839520330675073_">
			<use xlink:href="#SVGID_1_"  style="overflow:visible;"/>
		</clipPath>
		<g style="clip-path:url(#SVGID_00000011743369928509742440000017244839520330675073_);">
			<g>
				<defs>
					<rect id="SVGID_00000015318578798460531250000007990195824030450105_" x="0.5" y="0.5" width="19" height="19"/>
				</defs>
				<clipPath id="SVGID_00000066489689063646024010000014689170819053601211_">
					<use xlink:href="#SVGID_00000015318578798460531250000007990195824030450105_"  style="overflow:visible;"/>
				</clipPath>
				<g style="clip-path:url(#SVGID_00000066489689063646024010000014689170819053601211_);">
					<g>
						<defs>
							<rect id="SVGID_00000104680462438828406620000009731559783799129001_" x="0.5" y="0.5" width="19" height="19"/>
						</defs>
						<clipPath id="SVGID_00000093154058417850426920000005991296561482502065_">
							<use xlink:href="#SVGID_00000104680462438828406620000009731559783799129001_"  style="overflow:visible;"/>
						</clipPath>
						<g style="clip-path:url(#SVGID_00000093154058417850426920000005991296561482502065_);">
							<path class="st3" d="M18.7,8.2c0-0.2-0.1-0.5-0.1-0.7c0-0.4-0.1-0.7-0.1-1.1c-0.1-1-0.3-2-0.6-2.9c-0.1-0.2-0.1-0.4-0.2-0.5
								c0-0.1-0.1-0.1-0.1-0.2c-0.2-0.4-0.5-0.8-0.9-1c-0.7-0.4-1.5-0.7-2.3-1c0,0,0,0,0,0c-0.2-0.1-0.4-0.1-0.6-0.2
								c0,0-0.1,0-0.1,0c-0.2,0-0.6-0.1-0.6-0.1c0,0,0,0,0,0c-0.6,1.1-1.6,1.9-2.7,2.2c-0.3,0.1-0.6,0.1-0.9,0
								c-1.1-0.3-2-1.1-2.7-2.2c0,0-0.4,0-0.6,0.1c0,0-0.1,0-0.1,0C6,0.6,5.8,0.7,5.6,0.8c0,0,0,0,0,0C4.8,1,4,1.3,3.3,1.7
								c-0.4,0.2-0.7,0.6-0.9,1c0,0.1-0.1,0.1-0.1,0.2C2.2,3.1,2.2,3.3,2.1,3.5c-0.3,1-0.5,1.9-0.6,2.9C1.5,6.8,1.4,7.1,1.4,7.5
								c0,0.2,0,0.5-0.1,0.7c0,0,0,0,0,0c0,0.1,0,0.1,0.1,0.2l0,0C1.6,8.4,1.8,8.5,2,8.5c0,0,0,0,0,0c0.4,0.2,0.8,0.2,1,0.3
								c0.2,0,0.4,0.1,0.6,0.1c0.2,0,0.2,0,0.3,0c0,0,0,0,0,0c0,0,0,0,0,0C4.1,9,4.2,9,4.4,9c0,0,0,0,0,0c0,0,0,0,0,0
								c0-0.3,0-0.6,0.1-0.8c0,0,0-0.1,0-0.1c0-0.2,0-0.3,0-0.4c0-0.6,0-0.9,0-1.2c0-0.2,0-0.3,0-0.5c0-0.1,0-0.1,0-0.2
								c0-0.2,0-0.4,0-0.6c0,0,0,0,0,0c0-0.1,0-0.2,0.1-0.2c0.1,0,0.2,0,0.2,0c0.1,0.1,0.1,0.2,0.1,0.3C5,6.2,5,6.6,5,6.6
								c0,0.1,0,0.2,0,0.2c0,2,0,2.7,0.1,3.6c0,0.9,0,1.7,0,1.7c0,0-0.1,5.8-0.3,6.4c0,0.1,0,0.2,0,0.2c0,0,0,0.1,0.1,0.1
								c1.1,0.3,2.2,0.5,3.4,0.6c0.1,0,0.3,0,0.4,0c0,0,0.1,0,0.1,0l0.1,0c0,0,0.1,0,0.1,0l0,0c0.1,0,0.2,0,0.3,0c0.1,0,0.3,0,0.4,0
								c0.1,0,0.2,0,0.3,0c0,0,0,0,0,0c0,0,0,0,0,0c0.1,0,0.2,0,0.3,0c0.1,0,0.3,0,0.4,0c0.1,0,0.2,0,0.3,0l0,0c0,0,0.1,0,0.1,0
								l0.1,0c0,0,0.1,0,0.1,0c0.1,0,0.3,0,0.4,0c1.1-0.1,2.3-0.3,3.4-0.6c0.1,0,0.1-0.1,0.1-0.1c0-0.1,0-0.1,0-0.2
								c-0.1-0.6-0.3-6.4-0.3-6.4c0,0,0-0.8,0-1.7c0-0.8,0-1.6,0.1-3.6c0-0.1,0-0.1,0-0.2c0,0,0-0.4,0.1-1.4c0-0.1,0-0.2,0.1-0.3
								c0.1-0.1,0.2-0.1,0.2,0c0.1,0,0.1,0.1,0.1,0.2c0,0,0,0,0,0c0,0.2,0,0.3,0,0.6c0,0.1,0,0.1,0,0.2c0,0.2,0,0.3,0,0.5
								c0,0.3,0,0.6,0,1.2c0,0.1,0,0.3,0,0.4c0,0,0,0.1,0,0.1c0,0.2,0,0.5,0.1,0.8c0,0,0,0,0,0c0,0,0,0,0,0c0.1,0,0.3,0,0.5-0.1
								c0,0,0,0,0,0c0,0,0,0,0,0c0,0,0.1,0,0.3,0c0.2,0,0.4-0.1,0.6-0.1c0.2-0.1,0.5-0.1,1-0.3c0,0,0,0,0,0c0.2-0.1,0.4-0.1,0.6-0.2
								l0,0C18.7,8.3,18.7,8.3,18.7,8.2C18.7,8.2,18.7,8.2,18.7,8.2z"/>
						</g>
					</g>
				</g>
			</g>
		</g>
	</g>
</g>
</svg>
