<svg width="20" height="20" xmlns="http://www.w3.org/2000/svg" xmlns:xlink="http://www.w3.org/1999/xlink" xml:space="preserve" overflow="hidden"><defs><clipPath id="clip0"><rect x="0" y="0" width="20" height="20"/></clipPath><clipPath id="clip1"><rect x="0" y="0" width="19" height="19"/></clipPath><clipPath id="clip2"><rect x="0" y="0" width="19" height="19"/></clipPath><clipPath id="clip3"><rect x="0" y="0" width="19" height="19"/></clipPath></defs><g clip-path="url(#clip0)"><g clip-path="url(#clip1)"><g clip-path="url(#clip2)"><g clip-path="url(#clip3)"><path d="M18.1751 7.68163C18.1481 7.45227 18.1235 7.22232 18.0989 6.99267 18.0602 6.62857 18.0198 6.25216 17.9694 5.88395 17.8476 4.89357 17.6472 3.90729 17.3736 2.95118 17.3203 2.77601 17.2547 2.59909 17.1908 2.42773 17.1645 2.35772 17.1381 2.28742 17.1129 2.21711 16.9518 1.79383 16.6419 1.4435 16.2406 1.23142 15.5042 0.828062 14.7238 0.499397 13.9218 0.254517 13.9189 0.253567 13.9161 0.252611 13.9132 0.251697 13.7022 0.181943 13.4864 0.131302 13.2682 0.0946141 13.2382 0.0895256 13.2076 0.0891931 13.1776 0.0846569 12.9933 0.0570119 12.6213 0.0238034 12.6213 0.0238747 12.619 0.0237263 12.6167 0.0232512 12.6144 0.0231028 11.9798 1.10193 11.0535 1.91409 9.95839 2.22551 9.65632 2.31142 9.3382 2.31142 9.03613 2.22551 7.94103 1.91409 7.01469 1.10193 6.3801 0.0231028 6.37779 0.0232512 6.00124 0.0570059 5.81692 0.0846509 5.78689 0.0891931 5.75625 0.0895197 5.72633 0.0946081 5.50806 0.131302 5.29233 0.181943 5.08127 0.251697 5.07841 0.252611 5.07556 0.253561 5.0727 0.254511 4.27068 0.499397 3.49032 0.828062 2.75391 1.23142 2.3526 1.4435 2.04268 1.79384 1.88158 2.21711 1.85639 2.28742 1.83002 2.35772 1.80366 2.42773 1.7398 2.59909 1.67419 2.77601 1.62087 2.95118 1.34728 3.90729 1.14692 4.89357 1.02507 5.88395 0.974682 6.25216 0.93426 6.62857 0.895595 6.99267 0.87099 7.22232 0.846385 7.45227 0.819434 7.68163 0.821631 7.68295 0.82346 7.68368 0.825657 7.68496 0.806728 7.75958 0.841949 7.82545 0.904786 7.84391L0.928803 7.84977C1.13275 7.91051 1.33586 7.97419 1.53867 8.03753 1.54222 8.03897 1.54706 8.04142 1.55057 8.04281 1.98736 8.21878 2.35399 8.2885 2.53714 8.33925 2.71582 8.38876 2.89861 8.4157 3.09253 8.44412 3.2595 8.46857 3.3191 8.48033 3.35499 8.48454 3.3577 8.48487 3.35964 8.48476 3.36231 8.48505 3.36246 8.48509 3.36257 8.48509 3.36272 8.48512 3.56235 8.51313 3.7303 8.5299 3.85329 8.5403 3.85461 8.52854 3.85527 8.51525 3.85655 8.50346 3.85926 8.50335 3.86376 8.50346 3.8664 8.50335 3.89192 8.21485 3.91107 7.95327 3.92619 7.71743 3.92853 7.68316 3.93029 7.64827 3.93249 7.61366 3.94194 7.45776 3.95014 7.31093 3.95614 7.18372 3.9846 6.58139 3.9988 6.28023 3.97723 5.98551 3.96486 5.81632 3.95999 5.64624 3.94916 5.47693 3.946 5.40956 3.94498 5.33797 3.94124 5.27192 3.92597 5.05373 3.91982 4.86728 3.91718 4.71024 3.91822 4.69427 3.91788 4.68255 3.91917 4.66589 3.92828 4.5478 3.94172 4.46527 4.00364 4.42837 4.07698 4.38468 4.18646 4.4239 4.25171 4.4759 4.35075 4.55476 4.37074 4.68116 4.3784 4.73451 4.51662 5.69479 4.52713 6.10774 4.52713 6.10782 4.5298 6.21316 4.53277 6.27727 4.53588 6.32813 4.55415 8.34016 4.58041 9.07727 4.59187 9.90226 4.59055 10.8491 4.58425 11.6018 4.58425 11.6018 4.58425 11.6019 4.46433 17.4275 4.32388 18.0275 4.29664 18.1438 4.28686 18.1842 4.31051 18.2551 4.31051 18.2551 4.31937 18.3563 4.40454 18.3828 5.49129 18.7201 6.61891 18.9195 7.7559 18.9739 7.88244 18.9821 8.00898 18.9856 8.13611 18.9891 8.18166 18.9901 8.22721 18.9918 8.27276 18.9933L8.34068 19.0049C8.36914 19.0058 8.39736 19.0056 8.42578 19.0061L8.43314 19.0073C8.54094 19.0084 8.64991 19.0079 8.75946 19.0108 8.90084 19.0148 9.04239 19.0156 9.18388 19.0178 9.28643 19.0194 9.39046 19.0231 9.491 19.0231 9.49309 19.0231 9.49518 19.023 9.49726 19.023 9.49935 19.023 9.5014 19.0231 9.50349 19.0231 9.60403 19.0231 9.70806 19.0194 9.81061 19.0178 9.9521 19.0156 10.0937 19.0148 10.235 19.0108 10.3446 19.0079 10.4536 19.0084 10.5613 19.0073L10.5687 19.0061C10.5971 19.0056 10.6254 19.0058 10.6538 19.0049L10.7217 18.9933C10.7673 18.9918 10.8128 18.9901 10.8584 18.9891 10.9855 18.9856 11.1121 18.9821 11.2386 18.9739 12.3756 18.9195 13.5032 18.7201 14.59 18.3828 14.6751 18.3563 14.684 18.2551 14.684 18.2551 14.7076 18.1842 14.6979 18.1438 14.6706 18.0275 14.5302 17.4275 14.4102 11.6019 14.4102 11.6018 14.4102 11.6018 14.4039 10.8491 14.4026 9.90226 14.4141 9.07727 14.4403 8.34016 14.4586 6.32813 14.4617 6.27727 14.4647 6.21316 14.4674 6.10782 14.4674 6.10775 14.4779 5.69479 14.6161 4.73451 14.6238 4.68116 14.6437 4.55476 14.7428 4.4759 14.808 4.4239 14.9175 4.38468 14.9909 4.42837 15.0528 4.46527 15.0662 4.5478 15.0753 4.66589 15.0766 4.68237 15.0763 4.69397 15.0773 4.70979 15.0747 4.86687 15.0685 5.05354 15.0532 5.27191 15.0495 5.33797 15.0485 5.40955 15.0453 5.47692 15.0345 5.64624 15.0296 5.81631 15.0173 5.98552 14.9957 6.28024 15.0099 6.5814 15.0383 7.18373 15.0443 7.31042 15.0525 7.45666 15.0619 7.61184 15.0641 7.64746 15.066 7.68346 15.0684 7.71876 15.0835 7.95423 15.1026 8.21541 15.1281 8.50336 15.1307 8.50347 15.1352 8.50336 15.1379 8.50347 15.1392 8.51526 15.1398 8.52855 15.1412 8.5403 15.2642 8.52991 15.4321 8.51313 15.6318 8.48513 15.6319 8.48509 15.632 8.48509 15.6322 8.48506 15.6349 8.48476 15.6368 8.48487 15.6395 8.48454 15.6754 8.48034 15.735 8.46858 15.902 8.44412 16.0959 8.41571 16.2787 8.38876 16.4574 8.33925 16.6405 8.28851 17.0071 8.21879 17.4439 8.04281 17.4474 8.04142 17.4523 8.03897 17.4558 8.03754 17.6586 7.97419 17.8617 7.91052 18.0657 7.84977L18.0897 7.84391C18.1525 7.82546 18.1878 7.75959 18.1688 7.68497 18.171 7.68368 18.1729 7.68295 18.1751 7.68163Z" fill="#1263AE" fill-rule="nonzero" fill-opacity="1"/></g></g></g></g></svg>